<?xml version="1.0" encoding="UTF-8"?>
<svg width="230px" height="112px" viewBox="0 0 230 112" version="1.1" xmlns="http://www.w3.org/2000/svg" xmlns:xlink="http://www.w3.org/1999/xlink" style="background: #274183;">
    <!-- Generator: Sketch 49.2 (51160) - http://www.bohemiancoding.com/sketch -->
    <title>logo - ea blue</title>
    <desc>Created with Sketch.</desc>
    <defs></defs>
    <g id="logo---ea-blue" stroke="none" stroke-width="1" fill="none" fill-rule="evenodd">
        <g id="Group" transform="translate(24.000000, 47.000000)" fill="#FEFEFE">
            <polygon id="Fill-2" points="0.5331 0.8745 12.6081 0.8745 12.6081 2.5925 2.4191 2.5925 2.4191 8.2965 11.5351 8.2965 11.5351 10.0145 2.4191 10.0145 2.4191 15.8615 12.7281 15.8615 12.7281 17.5795 0.5331 17.5795"></polygon>
            <path d="M16.7821,5.2417 L18.6201,5.2417 L18.6201,7.3887 C19.4311,6.0527 20.7201,4.9787 22.8441,4.9787 C25.8271,4.9787 27.5691,6.9837 27.5691,9.9187 L27.5691,17.5797 L25.7311,17.5797 L25.7311,10.3727 C25.7311,8.0817 24.4911,6.6497 22.3191,6.6497 C20.1951,6.6497 18.6201,8.2007 18.6201,10.5157 L18.6201,17.5797 L16.7821,17.5797 L16.7821,5.2417 Z" id="Fill-3"></path>
            <path d="M42.0526,11.4224 L42.0526,11.3744 C42.0526,8.5344 39.8806,6.6254 37.5896,6.6254 C35.2026,6.6254 33.2456,8.3914 33.2456,11.3744 L33.2456,11.4224 C33.2456,14.3344 35.2506,16.1954 37.5896,16.1954 C39.8806,16.1954 42.0526,14.2624 42.0526,11.4224 M31.3616,11.4464 L31.3616,11.3984 C31.3616,7.3654 34.2966,4.9794 37.2556,4.9794 C39.5466,4.9794 41.0266,6.2204 41.9806,7.6044 L41.9806,0.1584 L43.8186,0.1584 L43.8186,17.5794 L41.9806,17.5794 L41.9806,15.0974 C40.9786,16.5774 39.5226,17.8424 37.2556,17.8424 C34.2966,17.8424 31.3616,15.5034 31.3616,11.4464" id="Fill-5"></path>
            <polygon id="Fill-7" points="48.683 17.579 50.521 17.579 50.521 0.158 48.683 0.158"></polygon>
            <path d="M64.4335,10.6826 C64.2185,8.4396 62.9295,6.5306 60.4955,6.5306 C58.3715,6.5306 56.7485,8.2966 56.4865,10.6826 L64.4335,10.6826 Z M60.8295,16.2666 C62.5245,16.2666 63.7175,15.5746 64.7195,14.5246 L65.8655,15.5516 C64.6235,16.9346 63.1215,17.8656 60.7825,17.8656 C57.3935,17.8656 54.6245,15.2646 54.6245,11.4226 C54.6245,7.8426 57.1305,4.9786 60.5425,4.9786 C64.1945,4.9786 66.2945,7.8906 66.2945,11.5176 C66.2945,11.6846 66.2945,11.8756 66.2705,12.1616 L56.4865,12.1616 C56.7485,14.7636 58.6585,16.2666 60.8295,16.2666 Z" id="Fill-9"></path>
            <path d="M69.0838,16.0044 L70.0148,14.6924 C71.3518,15.6944 72.8308,16.2674 74.2858,16.2674 C75.7668,16.2674 76.8398,15.5034 76.8398,14.3104 L76.8398,14.2624 C76.8398,13.0214 75.3848,12.5444 73.7618,12.0904 C71.8278,11.5424 69.6808,10.8734 69.6808,8.6064 L69.6808,8.5584 C69.6808,6.4344 71.4458,5.0264 73.8808,5.0264 C75.3848,5.0264 77.0548,5.5514 78.3188,6.3874 L77.4838,7.7714 C76.3388,7.0314 75.0258,6.5784 73.8328,6.5784 C72.3768,6.5784 71.4458,7.3414 71.4458,8.3674 L71.4458,8.4154 C71.4458,9.5854 72.9738,10.0384 74.6208,10.5394 C76.5298,11.1124 78.5818,11.8524 78.5818,14.0714 L78.5818,14.1194 C78.5818,16.4584 76.6488,17.8184 74.1908,17.8184 C72.4248,17.8184 70.4678,17.1264 69.0838,16.0044" id="Fill-10"></path>
            <path d="M81.5633,16.0044 L82.4943,14.6924 C83.8303,15.6944 85.3093,16.2674 86.7653,16.2674 C88.2453,16.2674 89.3193,15.5034 89.3193,14.3104 L89.3193,14.2624 C89.3193,13.0214 87.8633,12.5444 86.2403,12.0904 C84.3073,11.5424 82.1593,10.8734 82.1593,8.6064 L82.1593,8.5584 C82.1593,6.4344 83.9253,5.0264 86.3593,5.0264 C87.8633,5.0264 89.5343,5.5514 90.7983,6.3874 L89.9633,7.7714 C88.8183,7.0314 87.5043,6.5784 86.3123,6.5784 C84.8563,6.5784 83.9253,7.3414 83.9253,8.3674 L83.9253,8.4154 C83.9253,9.5854 85.4533,10.0384 87.0993,10.5394 C89.0083,11.1124 91.0613,11.8524 91.0613,14.0714 L91.0613,14.1194 C91.0613,16.4584 89.1273,17.8184 86.6693,17.8184 C84.9043,17.8184 82.9473,17.1264 81.5633,16.0044" id="Fill-11"></path>
            <path d="M113.9667,11.4702 L110.1717,2.9502 L106.3537,11.4702 L113.9667,11.4702 Z M109.3137,0.7552 L111.0787,0.7552 L118.6927,17.5792 L116.6627,17.5792 L114.7067,13.1642 L105.6137,13.1642 L103.6327,17.5792 L101.6997,17.5792 L109.3137,0.7552 Z" id="Fill-12"></path>
            <path d="M122.435,17.58 L124.272,17.58 L124.272,5.242 L122.435,5.242 L122.435,17.58 Z M122.316,2.545 L124.416,2.545 L124.416,0.516 L122.316,0.516 L122.316,2.545 Z" id="Fill-13"></path>
            <path d="M128.1141,16.0044 L129.0451,14.6924 C130.3811,15.6944 131.8611,16.2674 133.3161,16.2674 C134.7961,16.2674 135.8701,15.5034 135.8701,14.3104 L135.8701,14.2624 C135.8701,13.0214 134.4141,12.5444 132.7921,12.0904 C130.8581,11.5424 128.7111,10.8734 128.7111,8.6064 L128.7111,8.5584 C128.7111,6.4344 130.4761,5.0264 132.9111,5.0264 C134.4141,5.0264 136.0851,5.5514 137.3491,6.3874 L136.5141,7.7714 C135.3691,7.0314 134.0561,6.5784 132.8631,6.5784 C131.4071,6.5784 130.4761,7.3414 130.4761,8.3674 L130.4761,8.4154 C130.4761,9.5854 132.0041,10.0384 133.6501,10.5394 C135.5591,11.1124 137.6121,11.8524 137.6121,14.0714 L137.6121,14.1194 C137.6121,16.4584 135.6791,17.8184 133.2201,17.8184 C131.4551,17.8184 129.4981,17.1264 128.1141,16.0044" id="Fill-14"></path>
            <polygon id="Fill-15" points="141.786 17.579 143.623 17.579 143.623 0.158 141.786 0.158"></polygon>
            <path d="M157.535,10.6826 C157.32,8.4396 156.032,6.5306 153.597,6.5306 C151.473,6.5306 149.851,8.2966 149.589,10.6826 L157.535,10.6826 Z M153.931,16.2666 C155.626,16.2666 156.819,15.5746 157.822,14.5246 L158.968,15.5516 C157.726,16.9346 156.223,17.8656 153.885,17.8656 C150.495,17.8656 147.727,15.2646 147.727,11.4226 C147.727,7.8426 150.233,4.9786 153.645,4.9786 C157.297,4.9786 159.397,7.8906 159.397,11.5176 C159.397,11.6846 159.397,11.8756 159.373,12.1616 L149.589,12.1616 C149.851,14.7636 151.761,16.2666 153.931,16.2666 Z" id="Fill-16"></path>
            <path d="M162.1864,16.0044 L163.1174,14.6924 C164.4534,15.6944 165.9334,16.2674 167.3884,16.2674 C168.8684,16.2674 169.9424,15.5034 169.9424,14.3104 L169.9424,14.2624 C169.9424,13.0214 168.4864,12.5444 166.8644,12.0904 C164.9304,11.5424 162.7834,10.8734 162.7834,8.6064 L162.7834,8.5584 C162.7834,6.4344 164.5484,5.0264 166.9834,5.0264 C168.4864,5.0264 170.1574,5.5514 171.4214,6.3874 L170.5864,7.7714 C169.4414,7.0314 168.1284,6.5784 166.9354,6.5784 C165.4794,6.5784 164.5484,7.3414 164.5484,8.3674 L164.5484,8.4154 C164.5484,9.5854 166.0764,10.0384 167.7224,10.5394 C169.6314,11.1124 171.6844,11.8524 171.6844,14.0714 L171.6844,14.1194 C171.6844,16.4584 169.7514,17.8184 167.2924,17.8184 C165.5274,17.8184 163.5704,17.1264 162.1864,16.0044" id="Fill-17"></path>
            <path d="M178.6737,4.7163 C179.2227,4.7163 179.5327,4.4303 179.5327,4.0243 C179.5327,3.5703 179.2227,3.3323 178.6737,3.3323 L177.6487,3.3323 L177.6487,4.7163 L178.6737,4.7163 Z M176.8367,2.6163 L178.7457,2.6163 C179.6767,2.6163 180.3677,3.0703 180.3677,3.9523 C180.3677,4.6453 179.9627,5.0743 179.3897,5.2413 L180.5117,6.8403 L179.5327,6.8403 L178.5307,5.3843 L177.6487,5.3843 L177.6487,6.8403 L176.8367,6.8403 L176.8367,2.6163 Z M182.1347,4.8123 L182.1347,4.7883 C182.1347,2.7593 180.5597,1.0893 178.4587,1.0893 C176.3827,1.0893 174.7837,2.7833 174.7837,4.8123 L174.7837,4.8363 C174.7837,6.8643 176.3597,8.5343 178.4587,8.5343 C180.5347,8.5343 182.1347,6.8403 182.1347,4.8123 Z M174.3067,4.8363 L174.3067,4.8123 C174.3067,2.5453 176.1447,0.6353 178.4587,0.6353 C180.7977,0.6353 182.6117,2.5213 182.6117,4.7883 L182.6117,4.8123 C182.6117,7.0793 180.7747,8.9883 178.4587,8.9883 C176.1207,8.9883 174.3067,7.1033 174.3067,4.8363 Z" id="Fill-18"></path>
        </g>
    </g>
</svg>